<svg xmlns="http://www.w3.org/2000/svg" width="192" height="192" viewBox="0 0 48 48">
  <!-- Bat — light purple, webbed wings, pointed ears -->
  <path d="M 20,22 L 6,4 12,12 4,6 14,16 24,20 Z" fill="#8055a0" opacity="0.9"/>
  <path d="M 28,22 L 42,4 36,12 44,6 34,16 24,20 Z" fill="#8055a0" opacity="0.9"/>
  <line x1="20" y1="22" x2="8" y2="8" stroke="#9566b3" stroke-width="0.5" opacity="0.5"/>
  <line x1="28" y1="22" x2="40" y2="8" stroke="#9566b3" stroke-width="0.5" opacity="0.5"/>
  <ellipse cx="24" cy="24" rx="8" ry="7" fill="#734d99"/>
  <ellipse cx="24" cy="22" rx="6" ry="5" fill="#7a52a0"/>
  <polygon points="19,18 17,10 22,17" fill="#734d99"/>
  <polygon points="29,18 31,10 26,17" fill="#734d99"/>
  <circle cx="21" cy="20" r="1.5" fill="#ff3322" opacity="0.9"/>
  <circle cx="27" cy="20" r="1.5" fill="#ff3322" opacity="0.9"/>
  <line x1="22" y1="26" x2="22" y2="29" stroke="white" stroke-width="0.8" stroke-linecap="round"/>
  <line x1="26" y1="26" x2="26" y2="28.5" stroke="white" stroke-width="0.8" stroke-linecap="round"/>
</svg>
