<svg xmlns="http://www.w3.org/2000/svg" width="224" height="160" viewBox="0 0 56 40">
  <!-- BIRD — wings down (flap frame 2) -->

  <!-- Left wing (down and out) -->
  <path d="M 18 20 Q 2 26 -2 34 Q 6 24 18 22" fill="#4a4a55"/>
  <path d="M 18 20 Q 4 24 0 30 Q 8 22 18 21" fill="#595966"/>

  <!-- Right wing (down and out) -->
  <path d="M 38 20 Q 54 26 58 34 Q 50 24 38 22" fill="#4a4a55"/>
  <path d="M 38 20 Q 52 24 56 30 Q 48 22 38 21" fill="#595966"/>

  <!-- Tail feathers -->
  <path d="M 22 31 L 18 40 L 23 35 L 28 40 L 33 35 L 38 40 L 34 31 Z" fill="#664d38"/>

  <!-- Body -->
  <ellipse cx="28" cy="22" rx="12" ry="10.5" fill="#806140" stroke="#664d38" stroke-width="0.8"/>
  <ellipse cx="28" cy="25" rx="7" ry="6" fill="#997755"/>

  <!-- Head -->
  <circle cx="28" cy="10" r="8" fill="#8c6b52" stroke="#664d38" stroke-width="0.6"/>

  <!-- Beak -->
  <polygon points="28,0.5 23.5,7.5 26,8 28,6 30,8 32.5,7.5" fill="#f2a61a" stroke="#cc8800" stroke-width="0.4"/>

  <!-- Eyes -->
  <ellipse cx="23" cy="8.5" rx="3" ry="2.8" fill="white"/>
  <ellipse cx="33" cy="8.5" rx="3" ry="2.8" fill="white"/>
  <circle cx="23.8" cy="9" r="1.6" fill="#cc3300"/>
  <circle cx="33.8" cy="9" r="1.6" fill="#cc3300"/>
  <circle cx="24" cy="9" r="0.9" fill="black"/>
  <circle cx="34" cy="9" r="0.9" fill="black"/>

  <!-- Angry eyebrows -->
  <line x1="17.5" y1="3.5" x2="25" y2="6" stroke="#40301f" stroke-width="2.5" stroke-linecap="round"/>
  <line x1="38.5" y1="3.5" x2="31" y2="6" stroke="#40301f" stroke-width="2.5" stroke-linecap="round"/>

  <!-- Talons -->
  <path d="M 23 31 L 21 35 L 22.5 34 L 23 36 L 24.5 34 L 25 35.5 L 25 31" stroke="#664d38" stroke-width="0.8" fill="#806140"/>
  <path d="M 31 31 L 29 35 L 30.5 34 L 31 36 L 32.5 34 L 33 35.5 L 33 31" stroke="#664d38" stroke-width="0.8" fill="#806140"/>
</svg>
