<svg xmlns="http://www.w3.org/2000/svg" width="192" height="192" viewBox="0 0 48 48">
  <!-- Heart Bug -->
  <ellipse cx="22" cy="16" rx="9" ry="4" fill="#ffccdd" opacity="0.35"/>
  <path d="M 24 36 Q 8 22 14 14 Q 20 8 24 16 Q 28 8 34 14 Q 40 22 24 36" fill="#ff4466"/>
  <path d="M 24 36 Q 8 22 14 14 Q 20 8 24 16 Q 28 8 34 14 Q 40 22 24 36" fill="none" stroke="#cc2244" stroke-width="1"/>
  <ellipse cx="18" cy="18" rx="3" ry="2.5" fill="#ff8899" opacity="0.5"/>
  <circle cx="30" cy="18" r="2.5" fill="white"/>
  <circle cx="31" cy="18.5" r="1.2" fill="#cc2244"/>
  <circle cx="29.5" cy="17" r="0.5" fill="white"/>
  <line x1="16" y1="36" x2="14" y2="42" stroke="#cc2244" stroke-width="0.8" stroke-linecap="round"/>
  <line x1="24" y1="36" x2="23" y2="42" stroke="#cc2244" stroke-width="0.8" stroke-linecap="round"/>
</svg>
