<svg xmlns="http://www.w3.org/2000/svg" width="192" height="192" viewBox="0 0 48 48">
  <!-- Jungle Spider — green/red/yellow -->
  <g stroke="#1a5914" stroke-width="2" stroke-linecap="round" fill="none">
    <polyline points="18,24 10,10 8,40"/>
    <polyline points="16,24 6,12 4,40"/>
    <polyline points="14,24 4,14 2,40"/>
    <polyline points="12,24 2,18 1,40"/>
    <polyline points="30,24 38,10 40,40"/>
    <polyline points="32,24 42,12 44,40"/>
    <polyline points="34,24 44,14 46,40"/>
    <polyline points="36,24 46,18 47,40"/>
  </g>
  <ellipse cx="14" cy="24" rx="12" ry="11" fill="#268c1a"/>
  <circle cx="11" cy="20" r="3.5" fill="#e62618" opacity="0.8"/>
  <circle cx="18" cy="19" r="2.5" fill="#e62618" opacity="0.8"/>
  <circle cx="13" cy="28" r="2" fill="#ffe600" opacity="0.7"/>
  <circle cx="20" cy="26" r="1.5" fill="#ffe600" opacity="0.7"/>
  <ellipse cx="30" cy="24" rx="8" ry="8" fill="#1a6b14"/>
  <circle cx="34" cy="20" r="2.2" fill="#ff2618"/>
  <circle cx="34" cy="27" r="2.2" fill="#ff2618"/>
  <circle cx="35" cy="20.5" r="0.8" fill="black"/>
  <circle cx="35" cy="27.5" r="0.8" fill="black"/>
  <line x1="36" y1="23" x2="42" y2="27" stroke="#8c8014" stroke-width="2" stroke-linecap="round"/>
  <line x1="36" y1="26" x2="42" y2="30" stroke="#8c8014" stroke-width="2" stroke-linecap="round"/>
</svg>
