<svg xmlns="http://www.w3.org/2000/svg" width="224" height="160" viewBox="0 0 56 40">
  <!-- Left wing -->
  <path d="M 16.8 16 Q 2.8 14 2.8 6 Q 11.2 8 19.6 20" fill="#595966"/>
  <!-- Right wing -->
  <path d="M 39.2 16 Q 53.2 14 53.2 6 Q 44.8 8 36.4 20" fill="#595966"/>

  <!-- Tail feathers -->
  <path d="M 22.4 31.2 L 19.6 40 L 28 36 L 36.4 40 L 33.6 31.2 Z" fill="#664d38"/>

  <!-- Body (brown oval) -->
  <ellipse cx="28" cy="22" rx="12.3" ry="11" fill="#806140"/>

  <!-- Head (lighter brown circle) -->
  <circle cx="28" cy="10" r="8.4" fill="#8c6b52"/>

  <!-- Beak (orange triangle) -->
  <polygon points="28,0.8 24,7.2 32,7.2" fill="#f2a61a"/>

  <!-- Eyes (white) -->
  <circle cx="23.3" cy="8.6" r="2.5" fill="white"/>
  <circle cx="32.7" cy="8.6" r="2.5" fill="white"/>

  <!-- Pupils -->
  <circle cx="23.8" cy="9" r="1.4" fill="black"/>
  <circle cx="33.2" cy="9" r="1.4" fill="black"/>

  <!-- Angry eyebrows -->
  <line x1="19" y1="4.4" x2="25.8" y2="5.6" stroke="#40301f" stroke-width="2" stroke-linecap="round"/>
  <line x1="37" y1="4.4" x2="30.2" y2="5.6" stroke="#40301f" stroke-width="2" stroke-linecap="round"/>
</svg>
